<svg id="Layer_1" data-name="Layer 1" xmlns="http://www.w3.org/2000/svg" viewBox="0 0 500 300"><defs><style>.cls-1{fill:#ddc700;}.cls-2{fill:#ce1356;}</style></defs><rect class="cls-1" width="500" height="300" rx="47.38"/><path class="cls-2" d="M452.62,0H47.38A47.38,47.38,0,0,0,0,47.38V70H500V47.38A47.38,47.38,0,0,0,452.62,0Z"/><path class="cls-2" d="M452.62,300H47.38A47.38,47.38,0,0,1,0,252.62V230H500v22.62A47.38,47.38,0,0,1,452.62,300Z"/><path class="cls-2" d="M70,110h80a0,0,0,0,1,0,0v50a30,30,0,0,1-30,30H100a30,30,0,0,1-30-30V110a0,0,0,0,1,0,0Z"/></svg>