<svg id="Layer_1" fill="#8c9fb6" data-name="Layer 1" xmlns="http://www.w3.org/2000/svg" viewBox="0 0 500 500"><path d="M477.14,200h-32.6a194.89,194.89,0,0,0-21-52.4l22.69-22.68a22.87,22.87,0,0,0,0-32.33L407.88,54.21a22.84,22.84,0,0,0-32.32,0L353,76.76a195.37,195.37,0,0,0-53-21.29V22.86A22.85,22.85,0,0,0,277.14,0H222.86A22.85,22.85,0,0,0,200,22.86V57.21a202.85,202.85,0,0,0-50.4,21.56L125,54.21a22.86,22.86,0,0,0-32.33,0L54.33,92.59a22.86,22.86,0,0,0,0,32.33l24.54,24.54A202.57,202.57,0,0,0,57.2,200H22.86A22.85,22.85,0,0,0,0,222.86v54.28A22.85,22.85,0,0,0,22.86,300h32.6a195.39,195.39,0,0,0,21.3,53L54.33,375.44a22.84,22.84,0,0,0,0,32.32l38.38,38.39a22.87,22.87,0,0,0,32.33,0l22.55-22.56A195.31,195.31,0,0,0,200,444.53v32.61A22.85,22.85,0,0,0,222.86,500h54.28A22.85,22.85,0,0,0,300,477.14V442.79a203.22,203.22,0,0,0,50.55-21.65l25,25a22.86,22.86,0,0,0,32.32,0l38.39-38.39a22.86,22.86,0,0,0,0-32.32l-25-25.05A202.36,202.36,0,0,0,442.8,300h34.34A22.85,22.85,0,0,0,500,277.14V222.86A22.85,22.85,0,0,0,477.14,200ZM360.28,250.18c-1.06,60.75-51.16,110-111.9,110a107.71,107.71,0,0,1-108.07-110c1.07-60.75,51.17-110,111.91-110A107.71,107.71,0,0,1,360.28,250.18Z"/></svg>